
<svg version="1.0" xmlns="http://www.w3.org/2000/svg"
 width="352.000000pt" height="338.000000pt" viewBox="0 0 352.000000 338.000000"
 preserveAspectRatio="xMidYMid meet">

<g transform="translate(0.000000,338.000000) scale(0.100000,-0.100000)"
fill="#000000" stroke="none">
<path d="M1335 2863 c-220 -229 -401 -420 -403 -425 -2 -4 29 -8 70 -7 l73 1
280 292 280 292 6 -115 c4 -64 7 -169 8 -233 l1 -118 -134 0 -134 0 -169 -176
c-92 -96 -169 -179 -171 -185 -2 -5 117 -9 307 -9 l311 0 0 -113 c0 -63 3
-210 7 -327 l6 -213 53 55 52 54 -4 145 c-9 319 -24 1116 -24 1302 0 108 -3
197 -7 197 -5 -1 -188 -188 -408 -417z m317 -495 c2 -40 3 -74 2 -76 -1 -1
-83 -1 -182 0 l-181 3 65 73 66 72 113 0 113 0 4 -72z"/>
<path d="M1953 3146 l-51 -58 4 -156 c11 -393 24 -1105 24 -1284 0 -109 4
-198 8 -198 5 0 44 37 87 83 43 45 131 136 194 202 352 365 526 548 529 556 2
5 -28 9 -66 9 l-69 0 -214 -222 c-118 -123 -245 -256 -284 -296 l-70 -74 -6
114 c-4 62 -7 168 -8 236 l-1 122 140 0 c108 0 141 3 147 14 4 7 79 87 167
177 l158 164 -88 6 c-49 4 -189 7 -311 8 l-223 1 -1 153 c-1 83 -4 231 -8 326
l-6 175 -52 -58z m412 -738 c-17 -18 -48 -52 -69 -75 l-40 -43 -113 0 -113 0
0 38 c0 20 -3 54 -6 75 l-7 37 189 0 188 0 -29 -32z"/>
<path d="M2182 1107 c-54 -20 -103 -67 -128 -121 -96 -207 137 -411 333 -290
138 85 137 303 -1 388 -55 34 -147 45 -204 23z m137 -102 c33 -17 61 -70 61
-115 0 -107 -112 -169 -189 -104 -115 96 -3 287 128 219z"/>
<path d="M680 1065 l0 -45 96 0 96 0 -45 -62 c-137 -193 -147 -211 -147 -255
l0 -43 160 0 160 0 0 45 0 45 -95 0 c-52 0 -95 3 -95 6 0 4 43 67 95 140 83
115 95 138 95 173 l0 41 -160 0 -160 0 0 -45z"/>
<path d="M1120 885 l0 -225 140 0 140 0 0 45 0 45 -85 0 -85 0 0 50 0 50 75 0
75 0 0 40 0 40 -75 0 -75 0 0 45 0 44 83 3 82 3 3 43 3 42 -140 0 -141 0 0
-225z"/>
<path d="M1520 885 l0 -225 55 0 55 0 0 138 0 137 90 -137 90 -138 55 0 55 0
0 225 0 225 -55 0 -55 0 0 -137 0 -137 -32 47 c-18 26 -59 87 -91 137 l-58 90
-55 0 -54 0 0 -225z"/>
<path d="M2600 885 l0 -225 55 0 54 0 3 93 3 92 83 3 82 3 0 -96 0 -95 55 0
55 0 0 225 0 225 -55 0 -55 0 0 -90 0 -91 -82 3 -83 3 -3 88 -3 87 -54 0 -55
0 0 -225z"/>
<path d="M130 335 c0 -9 9 -15 25 -15 25 0 25 -1 25 -85 0 -69 3 -85 15 -85
12 0 15 16 15 85 0 84 0 85 25 85 16 0 25 6 25 15 0 12 -14 15 -65 15 -51 0
-65 -3 -65 -15z"/>
<path d="M340 251 l0 -101 56 0 c64 0 73 23 11 28 -34 3 -37 6 -37 33 0 27 3
29 35 29 19 0 35 5 35 10 0 6 -16 10 -35 10 -32 0 -35 2 -35 30 0 28 2 30 41
30 61 0 45 24 -19 28 l-52 3 0 -100z"/>
<path d="M568 335 c-35 -20 -48 -44 -48 -90 0 -50 44 -95 93 -95 33 0 87 31
87 51 0 14 -26 11 -40 -6 -19 -23 -76 -19 -94 7 -22 31 -20 74 4 98 24 24 53
25 91 3 35 -21 50 -10 23 18 -27 26 -82 33 -116 14z"/>
<path d="M787 344 c-4 -4 -7 -49 -7 -101 0 -86 1 -93 20 -93 17 0 20 7 20 46
l0 45 43 -3 c42 -3 42 -3 45 -45 2 -30 8 -43 18 -43 12 0 14 17 12 97 -2 66
-7 98 -15 101 -9 2 -13 -10 -13 -42 l0 -46 -44 0 -45 0 -3 42 c-3 39 -16 57
-31 42z"/>
<path d="M1140 250 c0 -82 3 -100 15 -100 12 0 15 18 15 100 0 82 -3 100 -15
100 -12 0 -15 -18 -15 -100z"/>
<path d="M1254 337 c-3 -8 -4 -51 -2 -98 3 -70 6 -84 20 -87 14 -3 18 7 20 65
l3 67 44 -67 c29 -44 50 -67 63 -67 17 0 19 7 16 98 -2 78 -6 97 -18 97 -11 0
-16 -17 -20 -69 l-5 -69 -23 42 c-28 49 -70 101 -83 101 -5 0 -12 -6 -15 -13z"/>
<path d="M1500 250 c0 -81 3 -100 15 -100 11 0 15 17 17 72 l3 72 45 -72 c28
-45 52 -72 63 -72 16 0 17 9 15 97 -2 64 -7 98 -15 100 -9 3 -13 -17 -15 -69
l-3 -73 -48 73 c-67 100 -77 96 -77 -28z"/>
<path d="M1795 341 c-49 -20 -72 -74 -55 -126 33 -101 190 -76 190 30 0 47
-13 71 -50 90 -32 16 -55 18 -85 6z m78 -34 c10 -6 20 -28 23 -48 5 -29 2 -41
-15 -58 -25 -25 -68 -27 -93 -4 -27 24 -24 87 4 107 27 19 58 20 81 3z"/>
<path d="M1997 343 c-2 -4 11 -50 31 -100 26 -70 39 -93 53 -93 13 0 27 24 53
93 41 104 41 107 22 107 -14 0 -66 -119 -66 -149 0 -26 -14 -1 -40 71 -24 67
-42 90 -53 71z"/>
<path d="M2295 333 c-4 -10 -17 -47 -30 -83 -13 -36 -26 -73 -30 -82 -5 -13
-2 -18 10 -18 9 0 19 9 22 20 4 16 14 20 48 20 35 0 45 -4 50 -20 7 -22 35
-28 34 -7 0 6 -15 50 -32 97 -33 85 -57 110 -72 73z m41 -81 c6 -30 5 -32 -21
-32 -21 0 -26 4 -21 16 3 9 9 27 12 41 8 30 21 19 30 -25z"/>
<path d="M2470 335 c0 -9 9 -15 25 -15 25 0 25 -1 25 -85 0 -69 3 -85 15 -85
12 0 15 16 15 85 0 84 0 85 25 85 16 0 25 6 25 15 0 12 -14 15 -65 15 -51 0
-65 -3 -65 -15z"/>
<path d="M2680 251 c0 -84 3 -101 15 -101 13 0 15 15 13 97 -2 66 -7 98 -15
101 -10 3 -13 -21 -13 -97z"/>
<path d="M2845 341 c-37 -16 -60 -51 -60 -93 0 -33 6 -45 33 -69 44 -40 93
-40 133 0 48 49 38 125 -21 156 -32 16 -55 18 -85 6z m85 -41 c42 -42 14 -120
-42 -120 -42 0 -68 25 -68 67 0 40 30 73 65 73 14 0 34 -9 45 -20z"/>
<path d="M3060 251 c0 -82 3 -101 15 -101 11 0 15 16 17 67 l3 67 44 -67 c62
-96 76 -90 76 33 0 78 -3 95 -15 95 -11 0 -16 -16 -20 -65 l-5 -65 -45 64
c-65 93 -70 91 -70 -28z"/>
<path d="M3328 340 c-10 -6 -22 -20 -28 -30 -16 -30 2 -54 55 -74 32 -13 45
-23 43 -34 -4 -22 -35 -27 -63 -12 -36 19 -53 8 -27 -18 44 -44 128 -17 120
40 -2 16 -17 30 -48 45 -29 14 -45 28 -45 39 0 25 32 30 56 8 24 -22 46 -7 27
19 -16 21 -67 31 -90 17z"/>
</g>
</svg>
